<?xml version="1.0" encoding="UTF-8"?>
<svg version="1.1" viewBox="0 0 2048 637" width="7988" height="2488" xmlns="http://www.w3.org/2000/svg">
<path transform="translate(1357,32)" d="m0 0 412 1 22 3 21 5 18 7 19 10 13 10 10 9 11 14 8 14 5 12 5 19 1 7v24l-3 17-6 18-8 15-8 10-5 6-14 11-16 8 18 8 14 9 12 11 8 8 10 15 9 19 5 19 2 15v20l-3 19-6 20-8 17-8 12-8 10-8 9-8 7-15 11-21 11-19 7-21 5-22 3h-286v-189l1-65-41 1-148 1h-27l1 78 113 1v7l-5 21-7 16-7 12-8 10-13 13-15 10-15 7-19 6-16 3-9 1h-36l-16-3-19-7-14-8-14-11-12-12-10-13-9-15-8-16-7-19-5-18-4-23-1-10v-37l3-23 5-20 7-20 11-21 10-14 11-12 7-7 15-11 17-9 21-7 15-3 8-1h21l21 3 21 6 18 8 15 10 12 11 7 8 8 13 6 15 1 7h110l-4-24-6-20-8-17-10-16-11-13-10-11-11-9-13-10-18-11-21-10-17-6zm237 83-1 1v103h159l15-4 9-5 10-9 7-9 5-12 2-8v-15l-3-12-6-10-9-9-8-5-12-4-6-1-66-1zm-1 185v127l1 1h164l14-3 12-6 11-9 9-13 5-11 4-16v-20l-4-15-6-12-9-10-11-7-11-4-13-2z" fill="#463F43"/>
<path transform="translate(592,34)" d="m0 0h108v178h201v-178h255l-3 2-20 9-15 8-18 12-16 13-19 19-11 14-12 18-11 20-10 25-7 22-5 24-3 25v46l3 25 5 24 7 24 10 25 11 22 11 17 12 16 11 12 6 7 8 7 15 12 19 12 16 8 9 4v1l-28 1h-165l-54-1v-59l2-153-202 1-1 211h-109z" fill="#463F43"/>
<path transform="translate(254,57)" d="m0 0h31l46 2 42 4 40 6 31 7 20 6 17 7 11 7 11 13 13 18 5 9-2 5-7 9-12 9-14 8-17 8-28 10-31 8-18 3-27-9-35-9-37-8-39-7-45-6-47-4-22-1h-50l-34 2-27 3h-7l2-5 11-20 14-22 10-13 7-8 10-5 25-8 26-6 27-5 42-5 30-2z" fill="#463F43"/>
<path transform="translate(11,185)" d="m0 0 5 2 20 9 25 9 30 8 38 7 32 4 41 3h81l43-3 33-4 26-5 4-1 19 5 27 10 27 12 27 13 23 13 15 10 9 7 9 8 4 6-2 11-6 20-3 8-5-2-17-8-25-9-30-8-36-7-37-5-33-3-17-1-32-1h-35l-52 2-50 4-51 6-35 5-29-12-33-16-14-8-7-6v-20l3-32 5-24z" fill="#464044"/>
<path transform="translate(75,328)" d="m0 0h8l34 12 28 9 37 10 30 7 35 7 44 7 44 5 46 3h53l29-2 30-4 25-5-7 12-10 13-9 10-6 5-26 8-39 9-41 7-41 5-37 3-19 1-37 1h-26l-38-1-49-3-39-4-16-15-12-12-7-8-11-13-12-17-8-13-8-16-1-4 8-4 18-6z" fill="#474044"/>
<path transform="translate(249,311)" d="m0 0h61l41 2 42 4 35 5 30 6 27 7 24 8 19 9 2 3-21 6-21 4-25 3-31 2h-54l-36-2-40-4-41-6-38-7-39-9-37-10-29-9-2-2 47-5 41-3z" fill="#474044"/>
<path transform="translate(258)" d="m0 0h32l21 2 24 4 24 6 24 8 21 9 20 10 16 10 14 11 2 3-5-1-24-7-26-5-29-4-32-3-37-2h-69l-34 2-38 4-35 6-17 4-4-1 18-12 19-11 27-13 22-8 28-7 26-4z" fill="#484145"/>
<path transform="translate(454,443)" d="m0 0 4 1-17 12-20 12-15 8-21 9-20 7-21 6-27 5-19 2h-40l-26-3-25-5-27-8-28-11-24-12v-1h12l33 2 32 1h47l31-1 44-3 44-5 43-7z" fill="#484145"/>
<path transform="translate(71,168)" d="m0 0h55l45 3 47 5 49 7 43 8 25 6 15 5-4 2-31 4-31 2h-75l-34-2-38-4-32-5-32-7-33-11-13-6 2-2 18-3z" fill="#484145"/>
<path transform="translate(530,156)" d="m0 0h2l8 19 6 19 5 23 2 16v41l-4-2-10-9-21-14-21-12-29-14-28-11-15-5 2-2 27-7 23-8 16-7 17-10 11-9z" fill="#474044"/>
<path transform="translate(1585,553)" d="m0 0h8l6 13 18 44 1-57h8v83h-8l-5-10-16-39-3-7-1 56h-8z" fill="#474144"/>
<path transform="translate(1197,553)" d="m0 0h8l20 48 3 7 1-55h8v83h-8l-18-43-5-12-1 55h-8z" fill="#484145"/>
<path transform="translate(1335,553)" d="m0 0h26l5 3 4 5 3 8v15l-4 10-5 5 2 9 9 26v2h-10l-8-24-3-10-10-1v35h-9zm9 11v25h16l4-5 1-2v-12l-4-5-2-1z" fill="#50494D"/>
<path transform="translate(811,553)" d="m0 0h26l6 4 4 6 2 7v13l-4 11-5 5 2 9 9 26v2h-10l-11-33v-2h-10v35h-9zm9 11v25h15l5-5 1-3v-10l-3-5-3-2z" fill="#50494D"/>
<path transform="translate(1706,553)" d="m0 0h26l6 4 4 6 2 8v11l-3 10-6 7 1 6 10 31h-10l-3-8-8-25v-2h-11v35h-8zm8 11v25h16l5-5 1-3v-10l-4-6-2-1z" fill="#4B4448"/>
<path transform="translate(1047,552)" d="m0 0h6l6 5 3 8v12l-5 10-4 2 11 20 2-2 3-10 7 4-1 7-5 12 8 14v2h-9l-4-6-4 2-8 5h-8l-6-4-4-5-3-8-1-10 2-11 6-10 2-3-3-8v-15l4-8zm1 11-3 3v9l3 6 4-2 3-4v-8l-3-4zm-2 32-6 7-2 11 3 9 4 4h7l7-6-1-5-11-20z" fill="#4D464A"/>
<path transform="translate(1672,552)" d="m0 0h7l6 3 5 6 4 10 1 6h-9l-4-8-3-3h-7l-5 6-2 12v21l2 12 5 6h7l4-4 2-4 1-12-11-1v-11l1-1h19v24l-3 10-5 8-5 4-3 1h-7l-6-3-6-7-3-8-1-6v-37l3-12 6-8 4-3z" fill="#4C4549"/>
<path transform="translate(1551,552)" d="m0 0h7l6 3 6 7 3 8 1 6v37l-3 12-6 8-4 3-3 1h-7l-6-3-6-7-4-13v-39l4-13 7-8zm0 13-5 5-2 5-1 9v22l2 11 3 5 3 2h7l6-7 1-3 1-22-1-17-4-8-3-2z" fill="#4D464A"/>
<path transform="translate(1768,552)" d="m0 0h7l6 3 6 7 4 11v43l-4 11-7 8-4 2h-8l-7-4-6-9-2-6-1-10v-28l2-13 6-10 5-4zm1 13-5 4-3 7v37l4 8 3 3h7l5-5 2-4 1-6v-29l-2-8-4-6-2-1z" fill="#4B4548"/>
<path transform="translate(1162,552)" d="m0 0h8l7 4 6 9 2 7 1 15v15l-1 15-4 11-5 6-6 3h-8l-6-4-6-7-3-9v-45l3-9 5-7zm1 13-5 4-3 9v33l3 9 5 4h6l5-4 3-8v-35l-3-8-5-4z" fill="#4B4448"/>
<path transform="translate(596,553)" d="m0 0h35v12h-27v23h22l1 1v11h-23v24h27v12h-35z" fill="#484145"/>
<path transform="translate(684,553)" d="m0 0h35v12h-27v23h22l1 1v11h-23v24h26l1 1v11h-35z" fill="#484145"/>
<path transform="translate(1262,552)" d="m0 0h9l10 5 3 3-3 9-2 2-6-4-3-1h-7l-4 4-1 2v8l3 5 15 5 5 4 4 9 1 5v9l-2 9-4 6-5 4-4 1h-9l-8-3-8-7 1-5 4-6 8 6 3 1h9l5-5v-11l-3-4-14-4-6-5-4-9v-17l3-8 4-5z" fill="#4C4549"/>
<path transform="translate(1801,553)" d="m0 0h9l1 61 4 8 2 1h7l5-5 2-8 1-57h8v62l-3 11-5 7-7 4h-8l-6-3-6-7-3-8-1-6z" fill="#4E484B"/>
<path transform="translate(1382,553)" d="m0 0h9l1 61 3 6v2l3 1h7l5-5 2-7 1-58h8v63l-3 10-6 8-6 3h-8l-7-4-4-5-4-10-1-7z" fill="#4E484C"/>
<path transform="translate(937,553)" d="m0 0h8l12 50 7 29v4h-9l-3-13v-5l-21 1-4 17h-9l2-11zm4 19-2 5-6 29h16l-5-25-2-9z" fill="#4B4448"/>
<path transform="translate(1852,553)" d="m0 0h25l5 3 5 6 3 10v12l-3 10-5 7-7 3h-15v32h-8zm8 12v26l1 1h13l5-3 2-4 1-8-2-8-4-4z" fill="#484145"/>
<path transform="translate(1979,17)" d="m0 0h14l14 3 14 7 10 9 7 8 7 14 3 13v15l-4 16-6 11-9 10-8 7-14 7-13 3h-15l-16-4-11-6-11-9-9-13-5-12-2-9v-17l4-15 6-11 9-10 8-7 14-7zm-1 4-12 3-12 6-12 11-7 10-5 13-1 5v19l4 14 6 10 9 10 8 6 10 5 11 3h19l13-4 11-6 10-9 6-8 5-10 3-11v-19l-4-13-6-11-9-10-10-7-11-5-9-2z" fill="#544E51"/>
<path transform="translate(1447,552)" d="m0 0h7l6 3 6 7 4 12v3h-9l-5-10-2-1h-6l-5 5-2 5v37l4 8 2 2h7l4-4 3-6h9l-2 10-6 10-7 4h-8l-7-4-6-9-2-6-1-9v-29l2-13 6-10 5-4z" fill="#4C4549"/>
<path transform="translate(742,552)" d="m0 0h7l6 3 5 6 4 10v6h-8l-5-9-2-2h-7l-3 1-2 5-2 11v23l2 11 2 5 3 1h7l4-5 3-5h8l-1 9-4 8-7 6-3 1h-7l-6-3-6-7-3-8-1-5v-39l2-9 6-9 5-4z" fill="#4B4448"/>
<path transform="translate(894,552)" d="m0 0h7l7 4 6 9 2 6v6h-8l-5-9-3-2h-6l-5 5-2 9v29l2 9 5 5h7l4-5 2-5h9l-1 8-5 10-6 5-3 1h-7l-6-3-6-7-3-7-1-5v-41l3-10 4-6 6-5z" fill="#494246"/>
<path transform="translate(1119,552)" d="m0 0h7l7 4 5 7 3 9v5h-8l-5-9-3-2h-6l-5 5-2 8v31l3 10 4 3h6l5-5 2-5h9l-1 8-5 10-6 5-3 1h-8l-6-4-5-6-4-11v-43l4-11 7-8z" fill="#494246"/>
<path transform="translate(1396,458)" d="m0 0h1v44l-1 5-58 1v-2l12-5 11-6 12-9 12-11 7-10z" fill="#4C4649"/>
<path transform="translate(1471,553)" d="m0 0h39v11h-15v72h-9v-72h-15z" fill="#564F53"/>
<path transform="translate(1290,553)" d="m0 0h38v11l-14 1-1 71h-8v-72h-15z" fill="#463F43"/>
<path transform="translate(766,553)" d="m0 0h38v11h-15v72h-8v-72h-15z" fill="#463F43"/>
<path transform="translate(640,553)" d="m0 0h8v71h27v12h-35z" fill="#463F43"/>
<path transform="translate(972,553)" d="m0 0h8v71h26l1 1v11h-35z" fill="#484145"/>
<path transform="translate(859,553)" d="m0 0h9v83h-9z" fill="#5A5457"/>
<path transform="translate(1946,60)" d="m0 0h8l10 30 2-3 9-27h8v38h-5l-1-28-9 28h-7l-8-24-1-4-1 28h-5z" fill="#4B4448"/>
<path transform="translate(3,293)" d="m0 0 5 1 22 12 20 9 1 2-23 5-12 5-4 2-7-25z" fill="#4B4549"/>
<path transform="translate(1517,553)" d="m0 0h8v83h-8z" fill="#463F43"/>
<path transform="translate(1992,60)" d="m0 0h24l6 5 1 8-4 6-5 3 7 9 3 5v2h-5l-7-10-5-5-10-1v16h-5zm6 4-1 1v12h16l5-5-1-5-5-3z" fill="#4A4347"/>
<path transform="translate(1987,93)" d="m0 0 3 1v4l-5-1z" fill="#635D60"/>
<path transform="translate(2026,94)" d="m0 0 5 1-1 3h-4z" fill="#504A4E"/>
<path transform="translate(458,442)" d="m0 0" fill="#FEFEFE"/>
</svg>
